<?xml version="1.0" encoding="UTF-8"?>
<svg id="Lag_2" xmlns="http://www.w3.org/2000/svg" version="1.1" viewBox="0 0 757.3 217.5">
  <!-- Generator: Adobe Illustrator 29.1.0, SVG Export Plug-In . SVG Version: 2.1.0 Build 142)  -->
  <defs>
    <style>
      .st0 {
        font-size: 34.5px;
      }

      .st0, .st1, .st2, .st3, .st4, .st5, .st6, .st7, .st8 {
        font-family: NavineDemo-SemiCondensed, 'Navine Demo';
      }

      .st0, .st1, .st2, .st3, .st4, .st5, .st6, .st7, .st8, .st9, .st10, .st11, .st12, .st13, .st14, .st15 {
        fill: #38451f;
      }

      .st1 {
        font-size: 33px;
      }

      .st2 {
        font-size: 32.9px;
      }

      .st3 {
        font-size: 33.8px;
      }

      .st4 {
        font-size: 32.7px;
      }

      .st5 {
        font-size: 32.7px;
      }

      .st6 {
        font-size: 33.3px;
      }

      .st7 {
        font-size: 33.3px;
      }

      .st8 {
        font-size: 33.1px;
      }

      .st9, .st16, .st11, .st12, .st13, .st15 {
        isolation: isolate;
      }

      .st9, .st10 {
        font-size: 109px;
      }

      .st9, .st10, .st11, .st12, .st13, .st15 {
        font-family: AdobeHebrew-Regular, 'Adobe Hebrew';
      }

      .st10 {
        letter-spacing: 0em;
      }

      .st11 {
        font-size: 108.5px;
      }

      .st12 {
        font-size: 106.7px;
      }

      .st13 {
        font-size: 107px;
      }

      .st15 {
        font-size: 107px;
      }
    </style>
  </defs>
  <g>
    <g class="st16">
      <text class="st9" transform="translate(-.3 115.1) scale(1 1)"><tspan x="0" y="0">H</tspan></text>
      <text class="st10" transform="translate(83.3 114.6) scale(1 1)"><tspan x="0" y="0" xml:space="preserve">  A </tspan></text>
      <text class="st15" transform="translate(229.5 114.7) scale(1)"><tspan x="0" y="0">V</tspan></text>
      <text class="st12" transform="translate(302.5 112.7)"><tspan x="0" y="0" xml:space="preserve">  </tspan><tspan x="50.4" y="1.3">E</tspan></text>
      <text class="st13" transform="translate(415.6 114.5) scale(1 1)"><tspan x="0" y="0">R</tspan></text>
      <text class="st11" transform="translate(475.7 114.7) scale(1 1)"><tspan x="0" y="0">O</tspan></text>
    </g>
    <path class="st14" d="M725.8,30.3c12.5-2.7,28.5,6.5,28.5,6.5-7.8,2.2-15.5,6.6-15.5,6.6-5.8,3.5-15,9.3-15,9.3-14.6,7.4-18-2.4-18.2-2.6s-12.3,7.3-12.3,7.3l-2.6-3.4c4.5-2.1,5-2.7,5-2.7.9-1.3,1.1-7.7,1.1-7.7-1.9-.8-3.5-1.7-3.5-1.7-5.8-3.8-3.7-11-3.7-11l1.5-6c.9-2.6,2.1-6.8,2.6-10.6.6-4.7.3-8.6.3-8.6,6.1,5.1,10.3,13,10.3,13,5.4,8.3,2.2,16.5,2.2,16.5-1.7,4.2-3.9,6.2-3.9,6.2-.6.7-.5-4.2-.4-4.2s0-.4,0-.4l-.4-5.8c-.9-7.1-2.8-9-2.8-9,1.1,3.1.9,11.3.9,11.3,0,2.7-1.1,16.5-1.1,16.5,14.9-7.6,32.7-11.6,34.6-12.1h0c-14.6-.5-26.2,5.2-26.2,5.2,6-8.6,12.5-11,12.6-11,0,0,3.3-1.1,6.2-1.7h-.2Z"/>
  </g>
  <g>
    <text class="st1" transform="translate(172.1 209.5) scale(1 1)"><tspan x="0" y="0">P</tspan></text>
    <text class="st5" transform="translate(208.8 209) scale(1 1)"><tspan x="0" y="0">L</tspan></text>
    <text class="st4" transform="translate(241.2 209.7) scale(1.1 1)"><tspan x="0" y="0">A</tspan></text>
    <text class="st3" transform="translate(280.5 209.5) scale(1 1)"><tspan x="0" y="0">N</tspan></text>
    <text class="st2" transform="translate(317.9 209.7) scale(1.2 1)"><tspan x="0" y="0">T</tspan></text>
    <text class="st8" transform="translate(353 209.6)"><tspan x="0" y="0">E</tspan></text>
    <text class="st6" transform="translate(388 209.1) scale(1.1 1)"><tspan x="0" y="0">S</tspan></text>
    <text class="st7" transform="translate(425.6 209.8) scale(1.1 1)"><tspan x="0" y="0">K</tspan></text>
    <text class="st0" transform="translate(464.1 210.1) scale(1 1)"><tspan x="0" y="0">O</tspan></text>
    <text class="st5" transform="translate(501.3 209.6) scale(1 1)"><tspan x="0" y="0">L</tspan></text>
    <text class="st8" transform="translate(535.8 209.8)"><tspan x="0" y="0">E</tspan></text>
    <circle class="st14" cx="141.8" cy="198.1" r="5"/>
    <circle class="st14" cx="582.3" cy="198.2" r="5"/>
  </g>
</svg>