<?xml version="1.0" encoding="UTF-8"?><svg id="logo2" xmlns="http://www.w3.org/2000/svg" width="114.4" height="91.42" viewBox="0 0 114.4 91.42"><defs><style>.cls-1{fill:#37441d;}</style></defs><path class="cls-1" d="M64.39,43.42c21.99-4.77,50.01,11.45,50.01,11.45-13.61,3.87-27.26,11.71-27.26,11.71-10.24,6.13-26.39,16.52-26.39,16.52-25.63,13.11-31.62-4.26-32-4.6s-21.63,12.91-21.63,12.91l-4.53-6.1c7.96-3.75,8.72-4.77,8.72-4.77,1.52-2.38,1.9-13.62,1.9-13.62-3.41-1.36-6.07-3.07-6.07-3.07C-3.11,57.05.69,44.45.69,44.45l2.65-10.56c1.52-4.54,3.73-12.13,4.55-18.73,1.03-8.24.48-15.16.48-15.16,10.72,9.03,18.1,22.99,18.1,22.99,9.48,14.65,3.79,29.29,3.79,29.29-3.03,7.49-6.82,10.9-6.82,10.9-1.01,1.21-.81-7.52-.78-7.51s.03-.67,0-.66l-.73-10.22c-1.52-12.5-4.93-16.01-4.93-16.01,1.9,5.45,1.52,20.09,1.52,20.09,0,4.77-1.9,29.29-1.9,29.29,26.14-13.51,57.48-20.64,60.75-21.39.05-.01.04-.08-.01-.08-25.63-.93-45.95,9.21-45.95,9.21,10.62-15.33,21.99-19.41,22.04-19.41,0,0,5.74-1.94,10.95-3.07Z"/></svg>