<?xml version="1.0" encoding="UTF-8"?><svg id="Lag_2" xmlns="http://www.w3.org/2000/svg" width="757.3" height="217.5" viewBox="0 0 757.3 217.5"><defs><style>.cls-1{isolation:isolate;}.cls-2{fill:#38451f;}</style></defs><g class="cls-1"><g class="cls-1"><g class="cls-1"><path class="cls-2" d="M79.27,46.14c-9.16.65-10.03,1.31-10.03,10.57v44.36c0,9.37.87,9.92,10.03,10.68v3.16h-30.52v-3.16c9.48-.76,10.46-1.31,10.46-10.68v-21.91H21.17v21.91c0,9.26.98,9.92,10.14,10.68v3.16H1.44v-3.16c8.83-.76,9.81-1.31,9.81-10.68v-44.36c0-9.26-.98-9.92-10.14-10.57v-3.27h29.65v3.27c-8.61.65-9.59,1.31-9.59,10.57v17.77h38.04v-17.77c0-9.26-.98-9.92-9.7-10.57v-3.27h29.75v3.27Z"/></g></g><g class="cls-1"><g class="cls-1"><path class="cls-2" d="M180.41,114.26v-3.16c7.08-.98,8.07-1.96,6.54-6.21-1.42-4.36-3.49-10.14-5.89-16.79h-23.98c-1.74,5.12-3.27,9.59-4.69,14.06-2.51,6.87-1.63,8.06,6.98,8.94v3.16h-24.63v-3.16c7.19-1.09,8.72-1.85,12.75-11.55l23.22-57.98,3.71-.98c7.08,19.29,14.5,39.67,21.69,59.07,3.49,9.59,5.01,10.68,12.32,11.44v3.16h-28.01ZM169.62,55.51h-.22c-3.71,9.26-7.08,18.86-10.35,27.9h20.27l-9.7-27.9Z"/></g></g><g class="cls-1"><g class="cls-1"><path class="cls-2" d="M321.73,47.35c-7.49.86-8.99,1.82-13.16,11.66-3.1,7.17-14.44,34.56-22.79,57.03h-3.64c-7.38-19.9-16.58-43.44-22.79-58.95-3.32-8.13-5.03-9.09-11.66-9.74v-3.21h27.5v3.21c-7.81.86-8.13,1.71-6.42,6.53,3,7.81,11.13,29,18.19,46.86h.21c5.78-14.12,13.7-34.56,17.12-45.04,2.14-6.31,1.5-7.28-7.38-8.35v-3.21h24.82v3.21Z"/></g></g><g class="cls-1"><g class="cls-1"><path class="cls-2" d="M439.54,97.05c-.64,3.73-2.77,13.87-3.73,17.29h-53.35v-3.09c10.03-.85,10.88-1.71,10.88-10.56v-42.9c0-9.71-.85-10.14-9.28-10.78v-3.2h49.08c.11,2.77.64,10.14,1.07,15.79l-3.31.43c-1.07-4.38-2.13-6.83-3.63-9.28-1.6-2.24-4.48-2.99-12.27-2.99h-8.11c-3.52,0-3.74.21-3.74,3.42v24.54h10.14c9.82,0,10.46-.85,11.84-8.11h3.2v20.91h-3.2c-1.49-7.79-2.24-8.43-11.74-8.43h-10.24v20.27c0,5.12.64,7.47,2.67,8.75,2.13,1.28,5.98,1.39,11.2,1.39,8.11,0,11.31-.85,13.76-3.63,1.81-2.24,3.95-5.97,5.55-10.24l3.2.43Z"/></g></g><g class="cls-1"><g class="cls-1"><path class="cls-2" d="M570.21,115.6c-1.39,0-2.67,0-3.96-.11-8.56-.43-13.16-2.78-18.08-9.84-3.85-5.35-7.7-12.09-10.91-17.33-1.93-3.1-3.85-4.39-9.42-4.39h-3.32v17.12c0,9.09.96,9.84,9.84,10.59v3.1h-29.32v-3.1c8.88-.75,9.84-1.5,9.84-10.59v-43.44c0-9.2-.86-9.74-9.42-10.38v-3.21h27.6c8.35,0,13.59.96,17.76,3.75,4.49,2.78,7.38,7.7,7.38,14.34,0,9.31-5.99,14.98-14.02,18.4,1.93,3.64,6.53,10.91,9.74,15.73,4.07,5.78,6.21,8.77,8.88,11.45,2.89,3.1,5.35,4.39,7.81,5.14l-.43,2.78ZM529.55,80.3c5.56,0,9.2-.86,11.98-3.1,4.17-3.32,5.88-7.49,5.88-13.48,0-11.66-7.7-15.94-15.83-15.94-3.1,0-5.03.43-5.88,1.07-.86.53-1.18,1.71-1.18,4.71v26.75h5.03Z"/></g></g><g class="cls-1"><g class="cls-1"><path class="cls-2" d="M665.79,41.78c19.1,0,36.46,14.54,36.46,36.57,0,23.76-17.25,38.41-37.87,38.41s-36.78-15.52-36.78-36.78c0-19.75,14.43-38.19,38.08-38.19h.11ZM663.41,45.9c-12.37,0-23.98,10.42-23.98,31.14s11.61,35.7,27.34,35.7c12.37,0,23.55-10.2,23.55-31.47,0-23.11-12.26-35.37-26.8-35.37h-.11Z"/></g></g></g><path class="cls-2" d="M728.8,32.4c12.5-2.7,28.5,6.5,28.5,6.5-7.8,2.2-15.5,6.6-15.5,6.6-5.8,3.5-15,9.3-15,9.3-14.6,7.4-18-2.4-18.2-2.6s-12.3,7.3-12.3,7.3l-2.6-3.4c4.5-2.1,5-2.7,5-2.7.9-1.3,1.1-7.7,1.1-7.7-1.9-.8-3.5-1.7-3.5-1.7-5.8-3.8-3.7-11-3.7-11l1.5-6c.9-2.6,2.1-6.8,2.6-10.6.6-4.7.3-8.6.3-8.6,6.1,5.1,10.3,13,10.3,13,5.4,8.3,2.2,16.5,2.2,16.5-1.7,4.2-3.9,6.2-3.9,6.2-.6.7-.5-4.2-.4-4.2s0-.4,0-.4l-.4-5.8c-.9-7.1-2.8-9-2.8-9,1.1,3.1.9,11.3.9,11.3,0,2.7-1.1,16.5-1.1,16.5,14.9-7.6,32.7-11.6,34.6-12.1h0c-14.6-.5-26.2,5.2-26.2,5.2,6-8.6,12.5-11,12.6-11,0,0,3.3-1.1,6.2-1.7h-.2v.1Z"/><g class="cls-1"><g class="cls-1"><path class="cls-2" d="M174.54,186.4h8.38c1.28,0,2.33.13,3.15.38.82.25,1.48.63,1.96,1.12.48.5.82,1.1,1.01,1.82s.28,1.55.28,2.49v3.37c0,.95-.09,1.78-.28,2.49s-.52,1.32-1.01,1.82c-.48.5-1.14.87-1.96,1.12-.83.25-1.88.38-3.15.38h-5.54v8.12h-2.84v-23.1ZM177.38,188.88v10.03h5.54c.68,0,1.25-.05,1.72-.17s.83-.3,1.11-.58c.27-.27.47-.64.58-1.09.11-.45.17-1.01.17-1.67v-3.04c0-.66-.06-1.22-.17-1.67-.11-.45-.3-.81-.58-1.07-.28-.26-.64-.46-1.11-.58s-1.03-.18-1.72-.18h-5.54Z"/></g></g><g class="cls-1"><g class="cls-1"><path class="cls-2" d="M214.03,206.55h9.52v2.45h-12.33v-22.89h2.81v20.44Z"/></g></g><g class="cls-1"><g class="cls-1"><path class="cls-2" d="M259.58,209.7l-2.23-6.34h-9.24l-2.23,6.34h-3.2l8.06-22.89h3.99l8.06,22.89h-3.2ZM248.9,200.9h7.66l-3.85-10.89-3.81,10.89Z"/></g></g><g class="cls-1"><g class="cls-1"><path class="cls-2" d="M285.91,209.5h-2.91v-23.66h2.91l9.77,17.61v-17.61h2.91v23.66h-2.91l-9.77-17.64v17.64Z"/></g></g><g class="cls-1"><g class="cls-1"><path class="cls-2" d="M329.31,209.7h-3.43v-20.56h-6.4v-2.47h16.23v2.47h-6.4v20.56Z"/></g></g><g class="cls-1"><g class="cls-1"><path class="cls-2" d="M367.93,209.6h-12.48v-23.17h12.48v2.48h-9.63v7.84h8.97v2.48h-8.97v7.88h9.63v2.48Z"/></g></g><g class="cls-1"><g class="cls-1"><path class="cls-2" d="M399.28,185.56c1.42,0,2.59.13,3.52.38.93.26,1.66.63,2.2,1.13s.91,1.12,1.12,1.85.31,1.58.31,2.53v1.96h-3.15v-1.83c0-.64-.06-1.19-.18-1.65-.12-.46-.34-.82-.66-1.1-.32-.28-.73-.48-1.23-.6-.5-.12-1.14-.18-1.92-.18h-2.2c-.76,0-1.39.06-1.9.18-.51.12-.92.32-1.23.6-.31.28-.52.64-.64,1.1s-.18,1-.18,1.65v.7c0,.62.05,1.14.16,1.57.11.42.3.78.59,1.07.28.29.67.52,1.15.7.49.18,1.11.32,1.87.43l2.64.37c1.32.2,2.42.46,3.3.77.88.31,1.58.71,2.11,1.2.53.49.9,1.08,1.12,1.78s.33,1.55.33,2.55v.73c0,.96-.1,1.8-.31,2.53-.21.73-.58,1.35-1.12,1.85-.54.5-1.26.88-2.18,1.13-.92.25-2.08.38-3.5.38h-2.2c-1.42,0-2.58-.13-3.5-.38s-1.64-.63-2.18-1.13c-.54-.5-.91-1.12-1.12-1.85-.21-.73-.31-1.58-.31-2.53v-1.96h3.15v1.83c0,1.29.28,2.2.84,2.73.56.53,1.6.8,3.11.8h2.2c.78,0,1.42-.06,1.92-.18.5-.12.9-.32,1.21-.6.3-.28.52-.64.64-1.1.12-.45.18-1,.18-1.65v-.7c0-.62-.05-1.14-.17-1.57-.11-.42-.31-.78-.59-1.06-.28-.29-.67-.52-1.15-.7-.49-.18-1.11-.32-1.87-.43l-2.64-.37c-1.32-.2-2.42-.46-3.3-.77-.88-.31-1.58-.71-2.11-1.2-.53-.49-.9-1.09-1.12-1.8s-.33-1.57-.33-2.56v-.7c0-.95.1-1.8.31-2.53s.58-1.35,1.12-1.85,1.26-.88,2.18-1.13c.92-.25,2.08-.38,3.5-.38h2.2Z"/></g></g><g class="cls-1"><g class="cls-1"><path class="cls-2" d="M431.46,209.8h-3.15v-23.31h3.15v10.39h4.65l5.68-10.39h3.41l-6.26,11.65,6.3,11.66h-3.44l-5.68-10.42h-4.65v10.42Z"/></g></g><g class="cls-1"><g class="cls-1"><path class="cls-2" d="M472.83,185.74h2.07c1.33,0,2.43.13,3.29.4s1.55.66,2.05,1.17c.51.52.86,1.16,1.07,1.92.21.76.31,1.63.31,2.62v12.35c0,.99-.1,1.86-.31,2.62s-.56,1.4-1.07,1.92c-.51.52-1.19.91-2.05,1.17-.86.26-1.96.4-3.29.4h-2.07c-1.33,0-2.43-.13-3.29-.4-.86-.26-1.55-.66-2.05-1.17-.51-.52-.86-1.16-1.05-1.92s-.29-1.63-.29-2.62v-12.35c0-.99.1-1.86.29-2.62.2-.76.55-1.4,1.05-1.92s1.19-.91,2.05-1.17c.86-.26,1.96-.4,3.29-.4ZM472.83,188.33c-.71,0-1.31.06-1.79.19-.48.13-.87.33-1.16.6-.29.28-.49.65-.6,1.12s-.17,1.05-.17,1.74v12.08c0,.69.06,1.27.17,1.74s.32.84.6,1.12c.29.28.67.48,1.16.6.48.13,1.08.19,1.79.19h2.07c.74,0,1.34-.06,1.81-.19.47-.13.85-.33,1.14-.6.29-.28.49-.65.6-1.12.11-.47.17-1.05.17-1.74v-12.08c0-.69-.06-1.27-.17-1.74-.12-.47-.32-.85-.6-1.12-.29-.28-.67-.48-1.14-.6-.47-.13-1.08-.19-1.81-.19h-2.07Z"/></g></g><g class="cls-1"><g class="cls-1"><path class="cls-2" d="M506.53,207.15h9.52v2.45h-12.33v-22.89h2.81v20.44Z"/></g></g><g class="cls-1"><g class="cls-1"><path class="cls-2" d="M550.73,209.8h-12.48v-23.17h12.48v2.48h-9.63v7.84h8.97v2.48h-8.97v7.88h9.63v2.48Z"/></g></g><circle class="cls-2" cx="141.8" cy="198.1" r="5"/><circle class="cls-2" cx="582.3" cy="198.2" r="5"/></svg>