<?xml version="1.0" encoding="UTF-8"?><svg id="Lag_2" xmlns="http://www.w3.org/2000/svg" width="757.28" height="217.46" viewBox="0 0 757.28 217.46"><defs><style>.cls-1{isolation:isolate;}.cls-2{fill:#38451f;}</style></defs><g class="cls-1"><g class="cls-1"><path class="cls-2" d="M79.48,46.35c-8.83.65-9.67,1.31-9.67,10.57v44.35c0,9.37.84,9.92,9.67,10.68v3.16h-29.44v-3.16c9.15-.76,10.09-1.31,10.09-10.68v-21.9H23.44v21.9c0,9.26.95,9.92,9.78,10.68v3.16H4.42v-3.16c8.52-.76,9.46-1.31,9.46-10.68v-44.35c0-9.26-.95-9.92-9.78-10.57v-3.27h28.6v3.27c-8.31.65-9.25,1.31-9.25,10.57v17.76h36.69v-17.76c0-9.26-.95-9.92-9.36-10.57v-3.27h28.7v3.27Z"/><path class="cls-2" d="M181.22,114.62v-3.16c6.97-.98,7.93-1.96,6.43-6.21-1.39-4.36-3.43-10.14-5.79-16.78h-23.58c-1.71,5.12-3.22,9.59-4.61,14.06-2.47,6.87-1.61,8.06,6.86,8.94v3.16h-24.22v-3.16c7.07-1.09,8.57-1.85,12.54-11.55l22.83-57.98,3.64-.98c6.97,19.29,14.25,39.67,21.33,59.07,3.43,9.59,4.93,10.68,12.11,11.44v3.16h-27.54ZM170.61,55.88h-.21c-3.64,9.26-6.97,18.85-10.18,27.9h19.94l-9.54-27.9Z"/></g><g class="cls-1"><path class="cls-2" d="M323.81,46.14c-7.68.87-9.22,1.85-13.5,11.85-3.18,7.28-14.81,35.11-23.37,57.93h-3.73c-7.57-20.22-17.01-44.13-23.37-59.89-3.4-8.26-5.16-9.24-11.96-9.89v-3.26h28.2v3.26c-8.01.87-8.34,1.74-6.58,6.63,3.07,7.93,11.41,29.45,18.65,47.61h.22c5.93-14.35,14.04-35.11,17.56-45.76,2.19-6.41,1.54-7.39-7.57-8.48v-3.26h25.46v3.26Z"/></g><g class="cls-1"><path class="cls-2" d="M439.43,96.74c-.64,3.73-2.78,13.87-3.74,17.28h-53.5v-3.09c10.06-.85,10.91-1.71,10.91-10.56v-42.88c0-9.71-.86-10.13-9.31-10.77v-3.2h49.22c.11,2.77.64,10.13,1.07,15.79l-3.32.43c-1.07-4.37-2.14-6.83-3.64-9.28-1.61-2.24-4.49-2.99-12.3-2.99h-8.13c-3.53,0-3.75.21-3.75,3.41v24.54h10.17c9.84,0,10.49-.85,11.88-8.11h3.21v20.91h-3.21c-1.5-7.79-2.25-8.43-11.77-8.43h-10.27v20.27c0,5.12.64,7.47,2.67,8.75,2.14,1.28,5.99,1.39,11.24,1.39,8.13,0,11.34-.85,13.8-3.63,1.82-2.24,3.96-5.97,5.56-10.24l3.21.43Z"/></g><g class="cls-1"><path class="cls-2" d="M568.71,115.37c-1.42,0-2.73,0-4.04-.11-8.73-.43-13.42-2.78-18.44-9.84-3.93-5.35-7.86-12.09-11.13-17.33-1.96-3.1-3.93-4.39-9.6-4.39h-3.38v17.12c0,9.09.98,9.84,10.04,10.59v3.1h-29.9v-3.1c9.06-.75,10.04-1.5,10.04-10.59v-43.43c0-9.2-.87-9.74-9.6-10.38v-3.21h28.16c8.51,0,13.86.96,18.12,3.74,4.58,2.78,7.53,7.7,7.53,14.34,0,9.31-6.11,14.98-14.3,18.4,1.96,3.64,6.66,10.91,9.93,15.73,4.15,5.78,6.33,8.77,9.06,11.45,2.95,3.1,5.46,4.39,7.97,5.13l-.44,2.78ZM527.24,80.07c5.67,0,9.39-.86,12.22-3.1,4.26-3.32,6-7.49,6-13.48,0-11.66-7.86-15.94-16.15-15.94-3.16,0-5.13.43-6,1.07-.87.54-1.2,1.71-1.2,4.71v26.75h5.13Z"/></g><g class="cls-1"><path class="cls-2" d="M662.98,41.4c18.51,0,35.35,14.54,35.35,36.56,0,23.76-16.73,38.4-36.71,38.4s-35.66-15.51-35.66-36.77c0-19.74,13.99-38.18,36.92-38.18h.1ZM660.67,45.52c-11.99,0-23.25,10.41-23.25,31.13s11.26,35.69,26.51,35.69c11.99,0,22.83-10.2,22.83-31.46,0-23.1-11.89-35.36-25.98-35.36h-.1Z"/></g></g><path class="cls-2" d="M725.78,30.31c12.5-2.7,28.5,6.5,28.5,6.5-7.8,2.2-15.5,6.6-15.5,6.6-5.8,3.5-15,9.3-15,9.3-14.6,7.4-18-2.4-18.2-2.6s-12.3,7.3-12.3,7.3l-2.6-3.4c4.5-2.1,5-2.7,5-2.7.9-1.3,1.1-7.7,1.1-7.7-1.9-.8-3.5-1.7-3.5-1.7-5.8-3.8-3.7-11-3.7-11l1.5-6c.9-2.6,2.1-6.8,2.6-10.6.6-4.7.3-8.6.3-8.6,6.1,5.1,10.3,13,10.3,13,5.4,8.3,2.2,16.5,2.2,16.5-1.7,4.2-3.9,6.2-3.9,6.2-.6.7-.5-4.2-.4-4.2s0-.4,0-.4l-.4-5.8c-.9-7.1-2.8-9-2.8-9,1.1,3.1.9,11.3.9,11.3,0,2.7-1.1,16.5-1.1,16.5,14.9-7.6,32.7-11.6,34.6-12.1h0c-14.6-.5-26.2,5.2-26.2,5.2,6-8.6,12.5-11,12.6-11,0,0,3.3-1.1,6.2-1.7l-.2.1Z"/><path class="cls-2" d="M174.5,186.45h8.13c1.24,0,2.26.13,3.06.38.8.25,1.44.63,1.9,1.12.47.49.79,1.1.98,1.81s.27,1.54.27,2.49v3.37c0,.95-.09,1.78-.27,2.49s-.51,1.32-.98,1.81c-.47.49-1.1.87-1.9,1.12-.8.25-1.82.38-3.06.38h-5.38v8.12h-2.75v-23.09ZM177.25,188.93v10.03h5.38c.66,0,1.22-.05,1.66-.17.45-.11.81-.3,1.07-.58.27-.27.45-.64.56-1.09.11-.45.16-1.01.16-1.67v-3.04c0-.66-.05-1.21-.16-1.67-.11-.45-.29-.81-.56-1.07-.27-.26-.62-.46-1.07-.58-.45-.12-1-.18-1.66-.18h-5.38Z"/><path class="cls-2" d="M214.21,206.56h9.9v2.46h-12.83v-22.92h2.93v20.46Z"/><path class="cls-2" d="M259.11,209.72l-2.17-6.34h-8.99l-2.17,6.34h-3.11l7.83-22.86h3.88l7.83,22.86h-3.11ZM248.72,200.93h7.45l-3.74-10.88-3.71,10.88Z"/><path class="cls-2" d="M286.1,209.48h-3v-23.65h3l10.08,17.61v-17.61h3v23.65h-3l-10.08-17.64v17.64Z"/><path class="cls-2" d="M328.95,209.72h-3.33v-20.59h-6.2v-2.47h15.74v2.47h-6.2v20.59Z"/><path class="cls-2" d="M368.11,209.62h-12.59v-23.18h12.59v2.48h-9.72v7.85h9.05v2.48h-9.05v7.88h9.72v2.48Z"/><path class="cls-2" d="M398.95,185.52c1.37,0,2.51.13,3.41.38.9.26,1.61.63,2.13,1.13s.88,1.12,1.08,1.85c.2.73.3,1.58.3,2.53v1.97h-3.06v-1.83c0-.64-.06-1.19-.18-1.65-.12-.46-.33-.82-.64-1.1-.31-.28-.71-.48-1.19-.6-.49-.12-1.11-.18-1.87-.18h-2.13c-.74,0-1.35.06-1.85.18-.5.12-.89.32-1.19.6-.3.28-.5.65-.62,1.1-.12.46-.18,1.01-.18,1.65v.7c0,.62.05,1.14.16,1.57.11.42.3.78.57,1.07.27.29.65.52,1.12.7.47.18,1.08.32,1.81.43l2.56.37c1.28.2,2.35.46,3.2.77.85.31,1.54.71,2.05,1.2.51.49.87,1.08,1.08,1.78.21.7.32,1.55.32,2.55v.73c0,.96-.1,1.8-.3,2.53-.2.73-.56,1.35-1.08,1.85-.52.5-1.23.88-2.12,1.13-.89.26-2.02.38-3.4.38h-2.13c-1.38,0-2.51-.13-3.4-.38-.89-.25-1.59-.63-2.12-1.13s-.88-1.12-1.08-1.85-.3-1.58-.3-2.53v-1.97h3.06v1.83c0,1.29.27,2.2.82,2.73.54.53,1.55.8,3.02.8h2.13c.76,0,1.38-.06,1.87-.18.49-.12.88-.32,1.17-.6.3-.28.5-.64.62-1.1.12-.46.18-1.01.18-1.65v-.7c0-.62-.05-1.14-.16-1.57-.11-.42-.3-.78-.57-1.07s-.65-.52-1.12-.7-1.08-.32-1.81-.43l-2.56-.37c-1.28-.2-2.35-.46-3.2-.77-.85-.31-1.54-.71-2.05-1.2-.51-.49-.87-1.09-1.08-1.8-.21-.71-.32-1.57-.32-2.57v-.7c0-.96.1-1.8.3-2.53s.56-1.35,1.08-1.85,1.23-.88,2.12-1.13c.89-.25,2.02-.38,3.4-.38h2.13Z"/><path class="cls-2" d="M431.36,209.82h-3.09v-23.32h3.09v10.39h4.57l5.58-10.39h3.35l-6.15,11.66,6.19,11.66h-3.38l-5.58-10.43h-4.57v10.43Z"/><path class="cls-2" d="M472.43,185.76h1.97c1.27,0,2.32.13,3.14.4.82.26,1.47.66,1.96,1.17.48.52.82,1.16,1.02,1.91.2.76.3,1.63.3,2.62v12.35c0,.99-.1,1.86-.3,2.62-.2.76-.54,1.4-1.02,1.91-.48.52-1.14.91-1.96,1.17-.82.26-1.87.4-3.14.4h-1.97c-1.27,0-2.32-.13-3.14-.4-.82-.26-1.48-.66-1.96-1.17-.48-.52-.82-1.16-1-1.91-.19-.76-.28-1.63-.28-2.62v-12.35c0-.99.09-1.86.28-2.62.19-.76.52-1.4,1-1.91.48-.52,1.13-.91,1.96-1.17.82-.26,1.87-.4,3.14-.4ZM472.43,188.35c-.68,0-1.25.06-1.71.19-.46.13-.83.33-1.1.6-.27.28-.47.65-.58,1.12-.11.47-.16,1.05-.16,1.74v12.07c0,.69.05,1.27.16,1.74.11.47.3.84.58,1.12.27.28.64.48,1.1.6.46.13,1.03.19,1.71.19h1.97c.7,0,1.28-.06,1.73-.19.45-.13.81-.33,1.09-.6.27-.28.47-.65.58-1.12.11-.47.17-1.05.17-1.74v-12.07c0-.69-.05-1.27-.17-1.74-.11-.47-.3-.84-.58-1.12-.27-.28-.64-.48-1.09-.6-.45-.13-1.03-.19-1.73-.19h-1.97Z"/><path class="cls-2" d="M506.76,207.15h9.9v2.46h-12.83v-22.92h2.93v20.46Z"/><path class="cls-2" d="M550.85,209.82h-12.59v-23.18h12.59v2.48h-9.72v7.85h9.05v2.48h-9.05v7.88h9.72v2.48Z"/><circle class="cls-2" cx="141.76" cy="198.1" r="5.05"/><circle class="cls-2" cx="582.35" cy="198.17" r="5.05"/></svg>